<?xml version="1.0" encoding="utf-8"?>
<!-- Generator: Adobe Illustrator 27.8.1, SVG Export Plug-In . SVG Version: 6.00 Build 0)  -->
<svg version="1.1" id="UE-2023-VT-BLACK" xmlns="http://www.w3.org/2000/svg" xmlns:xlink="http://www.w3.org/1999/xlink" x="0px"
	 y="0px" viewBox="0 0 531.63 645.62" style="enable-background:new 0 0 531.63 645.62;" xml:space="preserve">
<g>
	<path d="M162.83,172.88c1.54-0.41,3.14-0.6,4.73-0.54c8.87,0.31,15.81,7.75,15.5,16.62v97.6c0,9.94-6.38,12.1-12.27,11.99
		c-4-0.28-7.95-1.02-11.78-2.21c24.68,33.4,63.55,53.34,105.08,53.9l35.98-36.19l21.32,23.98c53.12-25.1,69.79-71.45,73.54-89.51
		c-19.43,19.99-40.92,40.11-55.43,26.17c0,0-0.79-74.5-0.79-105.05c0-41.04,39-71.69,39-71.69c-21.43,3.81-47.16,11.41-74.42,38.19
		c-2.47,2.45-4.81,5.02-7.01,7.72c-11.73-8.94-26.89-6.28-26.89-6.28c8.19,4.48,16.38,17.6,16.38,28.46v106.73
		c0,0-17.87,15.72-31.65,15.72c-6.31,0.06-12.25-2.94-15.95-8.05c-1.08-1.43-1.98-2.99-2.66-4.65V144
		c-4.08,3.36-17.83,6.05-17.83-16.72c0-14.2,10.23-31.13,28.42-41.49c-18.41,2.85-42.65,10.13-67.46,31.15
		c-29.41,25.41-46.16,62.48-45.78,101.35C132.85,218.28,146.18,176.69,162.83,172.88z"/>
	<path d="M265.83,434.56c120-0.01,217.28-97.29,217.27-217.29C483.1,97.27,385.82,0,265.83,0c-0.01,0-0.02,0-0.03,0
		C145.8,0.01,48.53,97.29,48.54,217.29C48.54,337.3,145.83,434.57,265.83,434.56z M265.78,8.67
		c115.2-0.01,208.6,93.38,208.61,208.58c0,0,0,0.01,0,0.01c0,115.2-93.38,208.59-208.58,208.59
		C150.6,425.87,57.2,332.48,57.2,217.28C57.19,102.08,150.57,8.68,265.78,8.67z"/>
	<path d="M60.9,540c0,12.2-6.7,20.1-20.2,20.1s-20.3-7.9-20.3-20.1v-35.4H0v37c0,21.3,14.6,35.3,40.7,35.3s40.6-14,40.6-35.3v-37
		H60.9V540z"/>
	<polygon points="177.66,504.6 157.96,504.6 157.96,547.4 116.46,504.6 94.86,504.6 94.86,574.6 114.56,574.6 114.56,528.6 
		159.76,574.6 177.66,574.6 	"/>
	<path d="M273.1,528.5c0-16-13.9-23.9-31.8-23.9h-49.1v70h20.3v-22.1h20.6l18.5,22.1h23.7l-20.6-23.8
		C265.7,547.6,273.1,540.2,273.1,528.5z M239.8,537.7h-27.4v-17.6h27.4c7.3,0,12.6,2,12.6,8.8C252.4,535.7,247.1,537.7,239.8,537.7z
		"/>
	<polygon points="358.62,559 304.01,559 304.01,546.6 348.12,546.6 348.12,531.7 304.01,531.7 304.01,520.2 357.52,520.2 
		357.52,504.6 283.91,504.6 283.91,574.6 358.62,574.6 	"/>
	<path d="M399.32,504.6l-36.2,70h21.4l6.6-13.4h38.4l6.6,13.4h21.7l-36.2-70H399.32z M398.12,546.7l12.2-24.8l12.1,24.8H398.12z"/>
	<polygon points="484.53,558.2 484.53,504.6 464.13,504.6 464.13,574.6 531.63,574.6 531.63,558.2 	"/>
	<polygon points="118.93,625.63 148.04,625.63 148.04,615.79 118.93,615.79 118.93,608.2 154.24,608.2 154.24,597.91 105.67,597.91 
		105.67,644.1 154.96,644.1 154.96,633.81 118.93,633.81 	"/>
	<polygon points="204.12,626.15 176.73,597.91 162.48,597.91 162.48,644.1 175.48,644.1 175.48,613.75 205.31,644.1 217.12,644.1 
		217.12,597.91 204.12,597.91 	"/>
	<path d="M253.48,626.81h15.31v4.16c-3.23,2.97-7.72,4.09-13.4,4.09c-11.22,0-17.55-4.95-17.55-14.06c0-9.04,6.14-13.99,17.36-13.99
		c6.2,0,10.36,1.58,14.32,5.15l9.83-7.26c-4.82-4.49-13.07-8.51-24.48-8.51c-18.94,0-30.69,8.98-30.69,24.62
		s11.75,24.62,30.69,24.62c12.34,0,21.45-4.09,26.4-10.23v-18.02h-27.78V626.81z"/>
	<rect x="289.3" y="597.91" width="13.46" height="46.2"/>
	<polygon points="353.97,626.15 326.58,597.91 312.33,597.91 312.33,644.1 325.33,644.1 325.33,613.75 355.16,644.1 366.97,644.1 
		366.97,597.91 353.97,597.91 	"/>
	<polygon points="389.94,625.63 419.04,625.63 419.04,615.79 389.94,615.79 389.94,608.2 425.24,608.2 425.24,597.91 376.67,597.91 
		376.67,644.1 425.97,644.1 425.97,633.81 389.94,633.81 	"/>
</g>
</svg>
